<svg width="512" height="512" viewBox="0 0 512 512" fill="none" xmlns="http://www.w3.org/2000/svg">
  <!-- Background -->
  <rect width="512" height="512" rx="64" fill="#16a34a"/>
  
  <!-- Invoice/Bill Icon -->
  <rect x="128" y="96" width="256" height="320" rx="16" fill="white"/>
  <rect x="144" y="112" width="224" height="4" rx="2" fill="#16a34a"/>
  <rect x="144" y="128" width="180" height="4" rx="2" fill="#6b7280"/>
  <rect x="144" y="144" width="200" height="4" rx="2" fill="#6b7280"/>
  <rect x="144" y="160" width="160" height="4" rx="2" fill="#6b7280"/>
  
  <!-- Items -->
  <rect x="144" y="200" width="224" height="2" rx="1" fill="#e5e7eb"/>
  <rect x="144" y="220" width="180" height="2" rx="1" fill="#e5e7eb"/>
  <rect x="144" y="240" width="200" height="2" rx="1" fill="#e5e7eb"/>
  <rect x="144" y="260" width="160" height="2" rx="1" fill="#e5e7eb"/>
  
  <!-- Total Line -->
  <rect x="144" y="320" width="224" height="4" rx="2" fill="#16a34a"/>
  <rect x="144" y="340" width="180" height="4" rx="2" fill="#16a34a"/>
  
  <!-- Dollar Sign -->
  <circle cx="256" cy="256" r="24" fill="#16a34a"/>
  <text x="256" y="268" text-anchor="middle" fill="white" font-family="Arial, sans-serif" font-size="24" font-weight="bold">₹</text>
</svg>
